<?xml version="1.0" standalone="no"?><!DOCTYPE svg PUBLIC "-//W3C//DTD SVG 1.1//EN" "http://www.w3.org/Graphics/SVG/1.1/DTD/svg11.dtd"><svg t="1712911336481" class="icon" viewBox="0 0 1024 1024" version="1.1" xmlns="http://www.w3.org/2000/svg" p-id="1124" xmlns:xlink="http://www.w3.org/1999/xlink" width="200" height="200"><path d="M158.18 355.23c13.47-66.68 75.71-118.92 155.15-130.23 131.21-18.67 265.23-18.67 396.44 0 79.45 11.3 141.69 63.54 155.15 130.23 22.24 110.13 22.24 222.62 0 332.75-13.47 66.68-75.71 118.92-155.15 130.23-131.21 18.67-265.23 18.67-396.44 0-79.45-11.3-141.69-63.54-155.15-130.23-22.24-110.13-22.24-222.62 0-332.75z" fill="#333333" p-id="1125"></path><path d="M366.5 433.5m-56 0a56 56 0 1 0 112 0 56 56 0 1 0-112 0Z" fill="#FFFFFF" p-id="1126"></path><path d="M271.52 693.5c-7.47 0-14.83-3.48-19.52-10-7.73-10.77-5.27-25.76 5.5-33.49l71.55-51.37a106.961 106.961 0 0 1 55.31-19.85c19.95-1.33 39.82 2.93 57.46 12.33 26.81 14.28 59.34 11.1 82.87-8.11l81.14-66.25c19.22-15.69 43.46-24.49 68.26-24.79 24.81-0.29 49.25 7.93 68.83 23.15l40.09 31.17c10.46 8.14 12.35 23.21 4.22 33.68-8.14 10.46-23.21 12.35-33.68 4.22l-40.09-31.17c-22.97-17.85-54.74-17.48-77.28 0.92l-81.14 66.25C532.52 638.57 504.97 648 477.2 648c-19.78 0-39.67-4.78-57.95-14.52-19.98-10.64-43.82-9.05-62.21 4.15L285.49 689a23.92 23.92 0 0 1-13.98 4.51z" fill="#FFFFFF" p-id="1127"></path></svg>