<?xml version="1.0" standalone="no"?><!DOCTYPE svg PUBLIC "-//W3C//DTD SVG 1.1//EN" "http://www.w3.org/Graphics/SVG/1.1/DTD/svg11.dtd"><svg t="1712911273616" class="icon" viewBox="0 0 1024 1024" version="1.1" xmlns="http://www.w3.org/2000/svg" p-id="884" xmlns:xlink="http://www.w3.org/1999/xlink" width="200" height="200"><path d="M126.097302 60.431108L983.570337 881.68531a55.423634 55.423634 0 0 1 0 80.802423l-1.251868 1.251869a61.512267 61.512267 0 0 1-84.501126 0L40.344308 142.485399a55.423634 55.423634 0 0 1 0.085355-80.887777l1.365675-1.365675a61.512267 61.512267 0 0 1 84.301964 0.199161z" p-id="885"></path><path d="M983.570337 142.400044L126.068851 963.654247a61.512267 61.512267 0 0 1-84.501126 0l-1.223417-1.223417a55.423634 55.423634 0 0 1 0-80.802423L897.931149 60.459559a61.512267 61.512267 0 0 1 84.415771-0.056903l1.223417 1.223417a55.423634 55.423634 0 0 1 0 80.802423z" p-id="886"></path></svg>