<?xml version="1.0" standalone="no"?><!DOCTYPE svg PUBLIC "-//W3C//DTD SVG 1.1//EN" "http://www.w3.org/Graphics/SVG/1.1/DTD/svg11.dtd"><svg t="1712911300571" class="icon" viewBox="0 0 1024 1024" version="1.1" xmlns="http://www.w3.org/2000/svg" p-id="1201" xmlns:xlink="http://www.w3.org/1999/xlink" width="200" height="200"><path d="M512 0a512 512 0 1 0 512 512A513.498143 513.498143 0 0 0 512 0z m-45.962261 294.404322c0-25.602881 13.963462-39.566343 44.176013-39.566343a45.501294 45.501294 0 0 1 32.651837 9.315377 42.255318 42.255318 0 0 1 11.639419 32.651836v314.091458a42.255318 42.255318 0 0 1-11.639419 32.651836 45.597329 45.597329 0 0 1-32.651837 6.991335c-30.250966 0-44.176014-13.963462-44.176013-39.566343z m79.132685 498.036538a50.610346 50.610346 0 1 1 13.963462-34.899051 47.36437 47.36437 0 0 1-13.963462 34.899051z" p-id="1202"></path></svg>